<?xml version="1.0" encoding="UTF-8"?>
<svg version="1.1" xmlns="http://www.w3.org/2000/svg" width="670" height="359">
<path d="M0 0 C3.9282453 3.27353775 7.77401983 6.62205385 11.5 10.125 C12.1909375 10.76695313 12.881875 11.40890625 13.59375 12.0703125 C15 14 15 14 14.7503252 15.93562317 C13.4578847 19.49152696 10.54152053 21.84612571 7.89135742 24.44921875 C7.25390091 25.08711334 6.6164444 25.72500793 5.95967102 26.38223267 C3.84863611 28.49117622 1.72716637 30.58928842 -0.39453125 32.6875 C-1.8639095 34.15128096 -3.33262524 35.61572724 -4.80070496 37.08081055 C-8.67075475 40.93940072 -12.54972212 44.78890444 -16.43060303 48.63659668 C-20.37121294 52.54661069 -24.30343652 56.4650378 -28.23632812 60.3828125 C-34.593572 66.71366864 -40.95600177 73.03925716 -47.32498169 79.35830688 C-50.22235307 82.23322247 -53.11651774 85.11113507 -56 88 C-52.6400808 89.11997307 -49.58653684 89.38632231 -46.0625 89.75 C-38.74997474 90.63540465 -32.62601242 92.72823453 -26 96 C-25.09894531 96.40863281 -24.19789063 96.81726563 -23.26953125 97.23828125 C-14.87050709 101.3468948 -8.56380379 107.49909133 -2 114 C-1.32114746 114.67047363 -0.64229492 115.34094727 0.05712891 116.03173828 C5.65253438 121.57122782 11.19882303 127.15869156 16.7265625 132.765625 C18.71314569 134.71807446 20.73966363 136.52714615 22.875 138.3125 C26.34006269 141.30387435 29.25715675 144.52963396 32.20703125 148.01953125 C34.67195401 150.74222371 37.42769679 153.04414173 40.2265625 155.4140625 C42.44462971 157.3976204 44.15089701 159.67370914 46 162 C47.08804629 162.95616189 48.19408992 163.89203861 49.3125 164.8125 C52.70853052 167.63404142 55.5167132 170.76125255 58.375 174.1171875 C60.46490747 176.53866683 62.70900065 178.76929011 65 181 C75 191 75 191 77.5 193.5625 C79.92763704 196.00896893 79.92763704 196.00896893 82.5 198 C85 200 85 200 87.125 202.3125 C94.42872576 209.13989581 102.24703053 213.0399981 112 215 C113.5778125 215.3403125 113.5778125 215.3403125 115.1875 215.6875 C129.61048062 217.2900534 143.19529665 213.79549052 154.6875 204.92578125 C166.43489107 194.90903261 172.74699221 182.40808013 174 167 C174 152.50653182 169.5906303 139.00564133 160 128 C148.48530093 117.59042685 135.26906228 112.57721574 119.65625 112.859375 C103.67473867 113.70545501 92.09156398 120.84055538 81.08789062 131.90185547 C79.01618619 133.98373432 76.92797787 136.0482399 74.83630371 138.11003113 C70.35798203 142.52732186 65.89501905 146.96014866 61.453125 151.4140625 C60.20257324 152.66630615 60.20257324 152.66630615 58.92675781 153.94384766 C56.95520104 155.85188377 56.95520104 155.85188377 56 158 C53 158 53 158 51.3515625 156.42578125 C50.78179687 155.72839844 50.21203125 155.03101563 49.625 154.3125 C46.88519794 151.04092201 44.06275232 147.97767587 41 145 C39.99880882 144.0011926 38.99856425 143.00143369 38 142 C42.05032877 137.17076185 46.15002622 133.04164482 51 129 C52.14437094 127.72546364 53.2681163 126.43222464 54.375 125.125 C57.31721612 121.67305785 60.45643349 118.75636991 63.921875 115.83984375 C66.13439968 113.88101081 68.10626972 111.78205068 70.125 109.625 C83.69509987 96.05490013 101.52774633 89.08344916 120.625 88.90234375 C144.0717749 89.22856875 162.29174485 97.47535205 179 114 C181.47719775 116.56402736 183.76239983 119.22517865 186 122 C186.68835938 122.83917969 187.37671875 123.67835938 188.0859375 124.54296875 C194.7362951 132.90562773 200.60456881 141.75743129 206.46655273 150.68554688 C207.12469971 151.68650391 207.78284668 152.68746094 208.4609375 153.71875 C209.04665527 154.61529297 209.63237305 155.51183594 210.23583984 156.43554688 C211.99406435 159.05804823 211.99406435 159.05804823 214.10791016 161.63085938 C215.97469129 163.96831023 217.36996044 166.39161489 218.8203125 169 C221.28362954 173.17621962 224.16070539 177.07426919 227 181 C227.70511719 181.97582031 228.41023438 182.95164063 229.13671875 183.95703125 C240.38667254 199.25147104 251.55453858 211.46596894 270.8125 215.3125 C285.19772033 217.38072166 299.00357962 214.15141385 311 206 C322.53811055 196.18767522 328.94444666 185.10041105 331 170 C332.06459214 155.38233103 328.37834242 142.06377861 318.875 130.8125 C310.24718761 121.75827185 301.03632876 117.85191993 289 115 C288.30390625 114.80792969 287.6078125 114.61585938 286.890625 114.41796875 C275.71826818 111.94804689 263.04127938 115.32412209 253.375 121 C250.09034568 123.14975715 247.04664817 125.52459836 244 128 C243.34 128 242.68 128 242 128 C242 128.66 242 129.32 242 130 C237.52941176 134 237.52941176 134 235 134 C233.76718156 130.59167212 232.56813116 127.17240254 231.375 123.75 C231.024375 122.78191406 230.67375 121.81382812 230.3125 120.81640625 C229.99023438 119.88183594 229.66796875 118.94726562 229.3359375 117.984375 C229.03220215 117.12553711 228.7284668 116.26669922 228.41552734 115.38183594 C227.90988402 112.48344801 228.41332234 111.42618272 230 109 C240.66751238 96.08394335 255.45723919 90.74843808 271.70828247 89.15838623 C280.40648571 88.55723203 289.22198066 89.0194736 297.9296875 89.26733398 C300.64330737 89.33978269 303.35601017 89.38098662 306.0703125 89.41796875 C306.89427521 89.45004929 307.71823792 89.48212982 308.56716919 89.5151825 C312.91712317 89.55368143 314.47486593 89.42373893 317.98657227 86.59008789 C324.31909892 78.44388014 323.97463798 67.88430024 323 58 C320.99983042 46.80857495 315.81075181 37.90983898 306.43359375 31.34765625 C298.95307853 27.20515585 290.5479984 24.42039336 282 24 C281.1853125 23.94972656 280.370625 23.89945313 279.53125 23.84765625 C263.48240063 23.27118896 250.60593612 29.18891263 238.96875 40.00390625 C236.5758895 42.43000093 234.38275299 44.96482876 232.2890625 47.65234375 C231 49 231 49 228 50 C226.34999614 47.06482399 224.70572568 44.12647526 223.0625 41.1875 C222.59392578 40.35412109 222.12535156 39.52074219 221.64257812 38.66210938 C221.19462891 37.85966797 220.74667969 37.05722656 220.28515625 36.23046875 C219.66459351 35.12288208 219.66459351 35.12288208 219.03149414 33.99291992 C218 32 218 32 217 29 C232.53523929 12.74405374 249.659518 0.87006659 273 0 C273.84691406 -0.03996094 274.69382812 -0.07992187 275.56640625 -0.12109375 C295.14453585 -0.60555984 313.14920091 5.05518582 328 18 C328 18.66 328 19.32 328 20 C328.66 20 329.32 20 330 20 C343.48813254 35.43236786 348.29698374 52.60904836 347.20263672 72.68505859 C346.21187693 84.00359386 340.2207879 94.12865589 335 104 C342.38864614 108.19657243 349.98677829 108.34016818 358.15625 106.15625 C365.78297987 103.18583942 372.3664618 98.7399218 379 94 C378.24303887 88.24013485 376.25665565 83.36603555 374.05859375 78.0234375 C373 75 373 75 373 71 C375.64 71 378.28 71 381 71 C388 84.51724138 388 84.51724138 388 90 C392.13636598 90.08705912 392.13636598 90.08705912 396 89 C398.20291056 86.22673967 399.63216009 83.25519595 401 80 C400.175 79.278125 399.35 78.55625 398.5 77.8125 C396 75 396 75 395.5 72.375 C396.09125715 69.56652856 396.67783254 68.65869104 399 67 C400.875 66.125 400.875 66.125 403 66 C405.6875 67.0625 405.6875 67.0625 408 69 C408.9375 72 408.9375 72 409 75 C408.34 75.99 407.68 76.98 407 78 C407.62777344 78.10054688 408.25554688 78.20109375 408.90234375 78.3046875 C409.59457031 78.53414063 410.28679688 78.76359375 411 79 C415.45171357 87.90342715 417.26640845 99.14288718 417 109 C413.84970637 108.02490912 411.09835379 107.05811815 408.25 105.375 C403.18425499 103.23180019 398.24082121 103.08278645 392.9296875 104.5859375 C385.69536686 107.77841098 380.10239999 113.93240257 374.5625 119.41015625 C367.01297414 126.65721713 358.58166557 131.2785228 348 132 C348.33773438 132.73863281 348.67546875 133.47726563 349.0234375 134.23828125 C357.41853771 153.33349473 357.0275824 173.16262107 350.0546875 192.640625 C349.14121454 194.83603061 348.12468389 196.90562399 347 199 C346.60425781 199.77214844 346.20851563 200.54429687 345.80078125 201.33984375 C336.44789946 218.30366659 320.16317036 231.59611795 301.5703125 236.99609375 C298.39009529 237.76360575 295.2199631 238.42393184 292 239 C291.27167969 239.13148438 290.54335938 239.26296875 289.79296875 239.3984375 C268.55437056 242.59936676 250.1328154 235.97633698 233 224 C230.5297666 222.08968617 228.28699025 220.13452423 226 218 C225.44699219 217.49210938 224.89398438 216.98421875 224.32421875 216.4609375 C223 215 223 215 223 213 C222.34 213 221.68 213 221 213 C220.06161624 211.64455679 219.1343545 210.28049107 218.25390625 208.88671875 C216.85738023 206.78540389 215.32564857 204.84545801 213.75 202.875 C210.19208365 198.35507194 207.02534576 193.62513694 203.8671875 188.8203125 C201.6582474 185.48379628 199.35325782 182.2357295 197 179 C196.69707031 180.05058594 196.39414062 181.10117188 196.08203125 182.18359375 C190.43559918 201.29809876 179.69710546 218.72504123 162 229 C153.3498716 233.67767776 144.71451852 237.19566892 135 239 C133.96166016 239.19529297 133.96166016 239.19529297 132.90234375 239.39453125 C130.92916253 239.69840926 128.99275248 239.87731188 127 240 C125.71609375 240.07927734 125.71609375 240.07927734 124.40625 240.16015625 C112.59653388 240.52524156 100.48869998 238.59548357 90 233 C88.989375 232.525625 87.97875 232.05125 86.9375 231.5625 C80.83810736 228.31814221 75.78528403 225.05113314 71 220 C70.236875 219.443125 69.47375 218.88625 68.6875 218.3125 C68.130625 217.879375 67.57375 217.44625 67 217 C67 216.34 67 215.68 67 215 C66.34 215 65.68 215 65 215 C63.58984375 213.56640625 63.58984375 213.56640625 61.9375 211.5625 C57.8738927 206.77779328 53.47132683 202.400228 49 198 C47.33253848 196.33412856 45.66598758 194.66734548 44 193 C43.14212891 192.14212891 42.28425781 191.28425781 41.40039062 190.40039062 C34.60026042 183.60026042 27.80013021 176.80013021 21 170 C20.12303467 169.12375977 19.24606934 168.24751953 18.3425293 167.34472656 C16.61470314 165.61527973 14.89140409 163.88212796 13.17578125 162.140625 C12.22136663 161.17707098 11.26693948 160.21352938 10.3125 159.25 C9.82716797 158.75628906 9.34183594 158.26257813 8.84179688 157.75390625 C6.18159783 155.03384724 6.18159783 155.03384724 3 153 C3 152.34 3 151.68 3 151 C2.34 151 1.68 151 1 151 C-0.33984375 149.63671875 -0.33984375 149.63671875 -1.9375 147.6875 C-6.64526987 142.14081936 -11.82576459 137.10555087 -17 132 C-17.85980469 131.12730469 -18.71960938 130.25460938 -19.60546875 129.35546875 C-31.49799372 117.65694909 -45.50455002 112.90728364 -62 113 C-73.20504556 113.82083473 -82.40840304 117.16060626 -90.9921875 124.4140625 C-92.92326869 125.93939122 -94.80775455 126.9110104 -97 128 C-98.00916033 129.76591887 -98.00916033 129.76591887 -99 132 C-99.763125 132.94875 -100.52625 133.8975 -101.3125 134.875 C-109.94811657 147.16019262 -110.61818946 161.49874181 -109 176 C-108.09348246 180.70388971 -106.32244924 184.81835602 -104 189 C-103.36578125 190.20076172 -103.36578125 190.20076172 -102.71875 191.42578125 C-95.86936202 202.95425695 -85.26522953 210.44765233 -72.51171875 213.9609375 C-56.60285795 217.68610576 -44.07132351 215.7414713 -29.6796875 207.71875 C-27.42747627 206.27418303 -25.84985946 204.88432889 -24 203 C-23.34 203 -22.68 203 -22 203 C-21.74605469 202.40703125 -21.49210937 201.8140625 -21.23046875 201.203125 C-19.86373626 198.75602301 -18.48257018 197.50652046 -16.3125 195.75 C-12.70510418 192.704626 -9.65233557 189.44626172 -6.59375 185.859375 C-1.22377622 179.59440559 -1.22377622 179.59440559 2.1875 177.9375 C4.55009339 176.71546894 4.95394906 175.39097358 6 173 C6.66 172.34 7.32 171.68 8 171 C11 171 11 171 12.578125 172.50390625 C13.12984375 173.18324219 13.6815625 173.86257812 14.25 174.5625 C17.63035014 178.60594654 21.22397665 182.32727213 25 186 C23.68626234 188.89620389 22.27067003 190.98748002 20.04174805 193.2487793 C19.44319504 193.86009201 18.84464203 194.47140472 18.22795105 195.10124207 C17.57909439 195.75232437 16.93023773 196.40340668 16.26171875 197.07421875 C15.58510696 197.75748734 14.90849518 198.44075592 14.21138 199.14472961 C12.7740253 200.5922082 11.33394357 202.03698316 9.89135742 203.47924805 C7.72306483 205.65186426 5.5712334 207.83988277 3.41992188 210.02929688 C-14.2927032 227.88677863 -32.17033476 239.05941969 -58.00390625 240.00390625 C-79.49987138 239.98289358 -97.88151456 231.38845168 -113.31640625 216.8125 C-128.45124789 200.70026155 -134.89276143 180.17148601 -134.3125 158.37890625 C-133.06806279 135.03015311 -119.12047693 117.61528434 -103.16601562 101.79370117 C-102.12283773 100.74808634 -101.08030594 99.70182658 -100.0383606 98.65498352 C-97.24821537 95.85556126 -94.44893431 93.06545394 -91.64743996 90.27739501 C-88.70474086 87.34612691 -85.76987697 84.40703092 -82.8338623 81.46907043 C-77.9168951 76.55122536 -72.99403348 71.63934431 -68.06738281 66.73120117 C-62.36903389 61.05413606 -56.67969505 55.36816177 -50.99508524 49.67734164 C-45.51197448 44.18854785 -40.02323274 38.7054206 -34.53166199 33.22509193 C-32.19820836 30.89628582 -29.86665343 28.56560274 -27.53657532 26.23341942 C-24.80292219 23.49788975 -22.0643585 20.76737428 -19.32183456 18.04073906 C-18.3146891 17.03785051 -17.30925329 16.03324181 -16.3056221 15.0268364 C-14.94082371 13.65883684 -13.56929778 12.29755872 -12.1973877 10.93669128 C-11.43053902 10.17189548 -10.66369034 9.40709967 -9.87360382 8.61912823 C-8 7 -8 7 -6 7 C-5.7525 6.401875 -5.505 5.80375 -5.25 5.1875 C-3.83629988 2.71352479 -2.34944617 1.56629745 0 0 Z " fill="#FBC42A" transform="translate(187,47)"/>
<path d="M0 0 C0.99 0 1.98 0 3 0 C3.66 1.98 4.32 3.96 5 6 C5.66 4.02 6.32 2.04 7 0 C8.32 0 9.64 0 11 0 C11.66 1.98 12.32 3.96 13 6 C13.66 4.02 14.32 2.04 15 0 C15.99 0 16.98 0 18 0 C17.5547115 5.27315333 16.91626837 10.01770224 15 15 C13.68 15 12.36 15 11 15 C10.34 12.69 9.68 10.38 9 8 C8.34 10.64 7.68 13.28 7 16 C5.68 15.67 4.36 15.34 3 15 C2.49363393 13.25183142 1.99515381 11.50137737 1.5 9.75 C1.2215625 8.77546875 0.943125 7.8009375 0.65625 6.796875 C0 4 0 4 0 0 Z " fill="#ADADAD" transform="translate(239,303)"/>
<path d="M0 0 C0.495 0.99 0.495 0.99 1 2 C-3.3556367 7.24260272 -8.02235667 12.15694883 -12.8125 17 C-13.38766357 17.5880542 -13.96282715 18.1761084 -14.55541992 18.78198242 C-15.997973 20.2279473 -17.49498029 21.61917073 -19 23 C-19.66 23 -20.32 23 -21 23 C-21.23936279 23.56315918 -21.47872559 24.12631836 -21.7253418 24.70654297 C-24.42021192 29.55534779 -28.9113304 33.23757659 -32.8125 37.125 C-33.71548828 38.04410156 -34.61847656 38.96320313 -35.54882812 39.91015625 C-36.86463867 41.22693359 -36.86463867 41.22693359 -38.20703125 42.5703125 C-39.0060083 43.37227051 -39.80498535 44.17422852 -40.62817383 45.00048828 C-43.02507973 47.02114287 -45.04011802 48.027275 -48 49 C-43.06002739 43.03881703 -37.71470138 37.58513698 -32.2265625 32.12890625 C-31.3028183 31.206577 -30.3790741 30.28424774 -29.42733765 29.33396912 C-26.99324569 26.90366186 -24.55616403 24.47637504 -22.1184082 22.04974365 C-19.6226689 19.56430636 -17.12982292 17.07597068 -14.63671875 14.58789062 C-9.7606114 9.72244904 -4.88133369 4.86019802 0 0 Z " fill="#FBD373" transform="translate(155,78)"/>
<path d="M0 0 C8.625 -0.25 8.625 -0.25 12 2 C12.1875 4.375 12.1875 4.375 12 7 C12 10.11257569 12.17361624 12.10765685 13 15 C11.68 15 10.36 15 9 15 C7.375 12.5625 7.375 12.5625 6 10 C5.34 9.67 4.68 9.34 4 9 C4 10.65 4 12.3 4 14 C2.68 14.33 1.36 14.66 0 15 C0 10.05 0 5.1 0 0 Z M4 3 C4 3.99 4 4.98 4 6 C5.65 5.67 7.3 5.34 9 5 C8.67 4.34 8.34 3.68 8 3 C6.68 3 5.36 3 4 3 Z " fill="#9B9B9B" transform="translate(298,303)"/>
<path d="M0 0 C0.66 1.65 1.32 3.3 2 5 C-0.66666667 4.33333333 -3.33333333 3.66666667 -6 3 C-6.66 5.31 -7.32 7.62 -8 10 C-6.02 10 -4.04 10 -2 10 C-2.99 9.67 -3.98 9.34 -5 9 C-5 8.01 -5 7.02 -5 6 C-2.69 6 -0.38 6 2 6 C2.1875 8.875 2.1875 8.875 2 12 C-1.73255448 14.48836965 -3.58440935 14.54226552 -8 14 C-10.5 11.9375 -10.5 11.9375 -12 9 C-12 5.19715329 -11.7968187 2.98069994 -9.375 0 C-6.01155688 -1.41618658 -3.50376557 -0.74118118 0 0 Z " fill="#89898A" transform="translate(406,304)"/>
<path d="M0 0 C0.99 0 1.98 0 3 0 C3.33 1.32 3.66 2.64 4 4 C4.598125 3.34 5.19625 2.68 5.8125 2 C8 0 8 0 11 0 C10.37240135 2.92879371 9.41377341 5.36095629 8 8 C8.66 8.78375 9.32 9.5675 10 10.375 C12 13 12 13 12 15 C7.68607774 14.5206753 5.83430453 13.2542015 3 10 C3 11.65 3 13.3 3 15 C1.68 15 0.36 15 -1 15 C-1.02685412 12.68756208 -1.04632841 10.3750373 -1.0625 8.0625 C-1.07410156 6.77472656 -1.08570313 5.48695313 -1.09765625 4.16015625 C-1 1 -1 1 0 0 Z " fill="#C6C6C5" transform="translate(325,303)"/>
<path d="M0 0 C4.59037956 1.14759489 5.33669182 2.29039218 8 6 C8.33 4.02 8.66 2.04 9 0 C9.99 0 10.98 0 12 0 C12 4.95 12 9.9 12 15 C8 14 8 14 5.75 10.9375 C5.1725 9.968125 4.595 8.99875 4 8 C3.67 10.31 3.34 12.62 3 15 C2.01 15 1.02 15 0 15 C0 10.05 0 5.1 0 0 Z " fill="#B2B2B1" transform="translate(368,303)"/>
<path d="M0 0 C0.66 0.33 1.32 0.66 2 1 C-6.41235846 10.12613433 -14.96505213 19.10677786 -23.6875 27.9375 C-24.97865723 29.26056152 -24.97865723 29.26056152 -26.29589844 30.61035156 C-27.51647949 31.8377002 -27.51647949 31.8377002 -28.76171875 33.08984375 C-29.843927 34.18607056 -29.843927 34.18607056 -30.94799805 35.30444336 C-33.03634365 37.03003054 -34.35135094 37.60980223 -37 38 C-33.41958536 30.83917072 -26.83659867 25.52832298 -20.73828125 20.51953125 C-18.376674 18.45511503 -16.20558498 16.23064845 -14 14 C-12.81708114 12.81573174 -11.63344132 11.63218335 -10.44921875 10.44921875 C-9.52592773 9.52592773 -9.52592773 9.52592773 -8.58398438 8.58398438 C-5.72265625 5.72265625 -2.86132812 2.86132812 0 0 Z " fill="#FBD578" transform="translate(262,152)"/>
<path d="M0 0 C3.3125 1 3.3125 1 5.3125 4 C5.73910463 7.91054241 5.89896281 10.12030578 3.6875 13.4375 C0.63131548 15.44814771 -1.09399325 15.53520313 -4.6875 15 C-7.53940475 13.32819377 -7.73732818 11.83182989 -8.6875 8.625 C-8.6875 5 -8.6875 5 -6.6875 2 C-3.6875 0 -3.6875 0 0 0 Z M-2.6875 3 C-4.85690921 3.79895413 -4.85690921 3.79895413 -5.375 5.875 C-5.87738397 8.18183235 -5.87738397 8.18183235 -4.6875 11 C-2.29030568 11.67958603 -2.29030568 11.67958603 0.3125 12 C2.59978734 10.16116119 2.59978734 10.16116119 2.4375 7.375 C2.39625 6.59125 2.355 5.8075 2.3125 5 C-0.07818734 3.89363605 -0.07818734 3.89363605 -2.6875 3 Z " fill="#9B9B9C" transform="translate(278.6875,303)"/>
<path d="M0 0 C2.48038907 3.7205836 2.46337203 5.59796571 2 10 C0.375 12.4375 0.375 12.4375 -2 14 C-6.10777749 14.50299316 -7.50875983 14.32749345 -11 12 C-12.04169177 8.05645258 -12.40024777 5.8767332 -10.6875 2.125 C-7.46785964 -1.92936194 -4.80935414 -1.03057589 0 0 Z M-6 2 C-7.66621425 3.1645201 -7.66621425 3.1645201 -9 5 C-8.76956136 7.65466049 -8.76956136 7.65466049 -8 10 C-5.60280568 10.67958603 -5.60280568 10.67958603 -3 11 C-0.71271266 9.16116119 -0.71271266 9.16116119 -0.875 6.375 C-0.91625 5.59125 -0.9575 4.8075 -1 4 C-3.475 3.01 -3.475 3.01 -6 2 Z " fill="#959595" transform="translate(224,304)"/>
<path d="M0 0 C1 4.75 1 4.75 1 7 C1.226875 7.639375 1.45375 8.27875 1.6875 8.9375 C2 11 2 11 0.9375 12.75 C-1.81912113 14.52846525 -3.78313417 14.33509019 -7 14 C-7.99 13.34 -8.98 12.68 -10 12 C-10 10.68 -10 9.36 -10 8 C-9.01 8 -8.02 8 -7 8 C-6.67 8.66 -6.34 9.32 -6 10 C-4.68 10 -3.36 10 -2 10 C-4.64 8.35 -7.28 6.7 -10 5 C-9.625 2.5625 -9.625 2.5625 -9 0 C-5.93109813 -1.53445094 -3.29905734 -0.54984289 0 0 Z M-6 2 C-6.33 2.66 -6.66 3.32 -7 4 C-4.03 4.495 -4.03 4.495 -1 5 C-1.66 4.01 -2.32 3.02 -3 2 C-3.99 2 -4.98 2 -6 2 Z " fill="#A09F9F" transform="translate(450,304)"/>
<path d="M0 0 C2.4375 1.25 2.4375 1.25 4.4375 4.25 C4.25 6.8125 4.25 6.8125 3.4375 9.25 C-0.7420645 12.03637633 -2.70918677 11.04562512 -7.5625 10.25 C-8.25 6.9375 -8.25 6.9375 -8.5625 3.25 C-6.39102585 -0.00721123 -3.83470169 -1.12235171 0 0 Z " fill="#FCC953" transform="translate(591.5625,113.75)"/>
<path d="M0 0 C3.63 0 7.26 0 11 0 C10.67 1.32 10.34 2.64 10 4 C7.69 3.67 5.38 3.34 3 3 C3 3.99 3 4.98 3 6 C5.31 6 7.62 6 10 6 C10 6.99 10 7.98 10 9 C7.69 9 5.38 9 3 9 C3 9.99 3 10.98 3 12 C5.64 12 8.28 12 11 12 C11 12.99 11 13.98 11 15 C7.37 15 3.74 15 0 15 C0 10.05 0 5.1 0 0 Z " fill="#A5A5A4" transform="translate(143,303)"/>
<path d="M0 0 C3.3 0 6.6 0 10 0 C10.33 0.99 10.66 1.98 11 3 C8.36 3 5.72 3 3 3 C3 3.99 3 4.98 3 6 C5.31 6 7.62 6 10 6 C10 6.99 10 7.98 10 9 C7.69 9 5.38 9 3 9 C3 9.99 3 10.98 3 12 C5.64 12 8.28 12 11 12 C11 12.99 11 13.98 11 15 C7.37 15 3.74 15 0 15 C0 10.05 0 5.1 0 0 Z " fill="#A1A0A0" transform="translate(542,303)"/>
<path d="M0 0 C0.66 0 1.32 0 2 0 C2 1.98 2 3.96 2 6 C3.98 6 5.96 6 8 6 C8 4.02 8 2.04 8 0 C8.99 0 9.98 0 11 0 C11 4.95 11 9.9 11 15 C10.01 15 9.02 15 8 15 C7.67 13.35 7.34 11.7 7 10 C5.35 9.67 3.7 9.34 2 9 C2 10.98 2 12.96 2 15 C1.01 15 0.02 15 -1 15 C-1.02685412 12.68756208 -1.04632841 10.3750373 -1.0625 8.0625 C-1.07410156 6.77472656 -1.08570312 5.48695313 -1.09765625 4.16015625 C-1 1 -1 1 0 0 Z " fill="#A4A3A3" transform="translate(117,303)"/>
<path d="M0 0 C0.33 1.65 0.66 3.3 1 5 C0.01 5 -0.98 5 -2 5 C-2.33 4.34 -2.66 3.68 -3 3 C-4.32 3.33 -5.64 3.66 -7 4 C-7 5.65 -7 7.3 -7 9 C-5.68 9.33 -4.36 9.66 -3 10 C-2.67 9.34 -2.34 8.68 -2 8 C-0.68 8 0.64 8 2 8 C0.25 12.875 0.25 12.875 -2 14 C-4.875 14.375 -4.875 14.375 -8 14 C-10.4375 11.9375 -10.4375 11.9375 -12 9 C-12 5.19715329 -11.7968187 2.98069994 -9.375 0 C-6.01155688 -1.41618658 -3.50376557 -0.74118118 0 0 Z " fill="#9F9F9F" transform="translate(526,304)"/>
<path d="M0 0 C3.375 1 3.375 1 4.8125 3.0625 C5.0909375 4.0215625 5.0909375 4.0215625 5.375 5 C1.375 5 1.375 5 -0.8125 4.4375 C-1.410625 4.293125 -2.00875 4.14875 -2.625 4 C-3.92133621 5.06645115 -3.92133621 5.06645115 -3.6875 7.5625 C-3.666875 8.366875 -3.64625 9.17125 -3.625 10 C-1.73320797 10.6814823 -1.73320797 10.6814823 0.375 11 C1.035 10.34 1.695 9.68 2.375 9 C3.365 9 4.355 9 5.375 9 C3.5 13.875 3.5 13.875 2.375 15 C-3.74645749 15.4534413 -3.74645749 15.4534413 -6.5625 14 C-8.28660604 10.75462393 -8.24913468 7.53203487 -7.625 4 C-5.36786018 0.29829069 -4.35529357 0 0 0 Z " fill="#9E9E9D" transform="translate(193.625,303)"/>
<path d="M0 0 C0.99 0 1.98 0 3 0 C3.83986084 1.93467942 4.67168027 3.87285129 5.5 5.8125 C5.9640625 6.89144531 6.428125 7.97039062 6.90625 9.08203125 C8 12 8 12 8 15 C6.68 14.67 5.36 14.34 4 14 C4 13.01 4 12.02 4 11 C2.35 11.33 0.7 11.66 -1 12 C-1.33 12.99 -1.66 13.98 -2 15 C-3.32 15 -4.64 15 -6 15 C-5.57388649 13.24719267 -5.13360733 11.49782565 -4.6875 9.75 C-4.44386719 8.77546875 -4.20023437 7.8009375 -3.94921875 6.796875 C-2.98831158 3.96556005 -2.07174194 2.14847312 0 0 Z M1 6 C0.67 6.66 0.34 7.32 0 8 C0.66 8 1.32 8 2 8 C1.67 7.34 1.34 6.68 1 6 Z " fill="#656567" transform="translate(494,303)"/>
<path d="M0 0 C0 7.8903988 -12.24917876 16.43296531 -17.5 21.6875 C-18.41136719 22.61111328 -19.32273437 23.53472656 -20.26171875 24.48632812 C-24.92619018 29.16089581 -29.46430722 33.38811254 -35 37 C-33.63886987 33.95418514 -32.10669904 31.86160974 -29.74365234 29.51660156 C-29.08311859 28.85621887 -28.42258484 28.19583618 -27.74203491 27.51544189 C-27.03052277 26.81425232 -26.31901062 26.11306274 -25.5859375 25.390625 C-24.49147812 24.30041046 -24.49147812 24.30041046 -23.37490845 23.18817139 C-21.0462612 20.87070802 -18.71075174 18.5603005 -16.375 16.25 C-14.79381347 14.67884556 -13.21307875 13.10723629 -11.6328125 11.53515625 C-7.7604331 7.68481347 -3.88239829 3.84023883 0 0 Z " fill="#FAE183" transform="translate(106,127)"/>
<path d="M0 0 C1.258125 -0.04125 2.51625 -0.0825 3.8125 -0.125 C4.52019531 -0.14820313 5.22789062 -0.17140625 5.95703125 -0.1953125 C8 0 8 0 11 2 C11.375 5 11.375 5 11 8 C7.77208445 10.1519437 6.71599191 10.20086443 3 10 C3 11.65 3 13.3 3 15 C2.01 15 1.02 15 0 15 C0 10.05 0 5.1 0 0 Z M3 3 C3 4.32 3 5.64 3 7 C4.65 6.67 6.3 6.34 8 6 C7.67 5.01 7.34 4.02 7 3 C5.68 3 4.36 3 3 3 Z " fill="#9E9D9D" transform="translate(466,303)"/>
<path d="M0 0 C3.96 0 7.92 0 12 0 C12 0.99 12 1.98 12 3 C10.35 3 8.7 3 7 3 C7 7.29 7 11.58 7 16 C6.01 15.67 5.02 15.34 4 15 C2.83936396 10.74433453 3.23826608 7.3164922 4 3 C2.68 3 1.36 3 0 3 C0 2.01 0 1.02 0 0 Z " fill="#ACABA9" transform="translate(91,303)"/>
<path d="M0 0 C0.66 0.33 1.32 0.66 2 1 C2 4 2 7 2 10 C2.2981424 11.34164079 2.62243192 12.67851173 3 14 C1.68 14 0.36 14 -1 14 C-2.625 11.5625 -2.625 11.5625 -4 9 C-4.66 8.67 -5.32 8.34 -6 8 C-6 9.65 -6 11.3 -6 13 C-6.33 13 -6.66 13 -7 13 C-7 9.37 -7 5.74 -7 2 C-6.67 2.99 -6.34 3.98 -6 5 C-5.38125 4.690625 -4.7625 4.38125 -4.125 4.0625 C-2.75 3.375 -1.375 2.6875 0 2 C0 1.34 0 0.68 0 0 Z " fill="#B4B4B3" transform="translate(308,304)"/>
<path d="M0 0 C0.33 0 0.66 0 1 0 C1 12.54 1 25.08 1 38 C0.67 38 0.34 38 0 38 C-2.67964378 25.58272215 -3.58193411 12.31289851 0 0 Z " fill="#FBF5B6" transform="translate(55,192)"/>
<path d="M0 0 C1.32 0.33 2.64 0.66 4 1 C4 5.62 4 10.24 4 15 C2.68 15 1.36 15 0 15 C0 10.05 0 5.1 0 0 Z " fill="#B8B8B7" transform="translate(350,303)"/>
<path d="M0 0 C3.375 0.3125 3.375 0.3125 7 1 C9.46324069 4.69486103 9.38991688 6.63293092 9 11 C7.5 12.9375 7.5 12.9375 6 14 C6 13.34 6 12.68 6 12 C5.34 11.67 4.68 11.34 4 11 C4.268125 10.278125 4.53625 9.55625 4.8125 8.8125 C4.874375 7.884375 4.93625 6.95625 5 6 C2.64573501 3.22877725 2.64573501 3.22877725 0 1 C0 0.67 0 0.34 0 0 Z " fill="#A7A7A6" transform="translate(217,303)"/>
<path d="M0 0 C0.33 1.65 0.66 3.3 1 5 C0.01 5 -0.98 5 -2 5 C-2.33 4.34 -2.66 3.68 -3 3 C-4.2065625 3.2784375 -4.2065625 3.2784375 -5.4375 3.5625 C-6.283125 3.706875 -7.12875 3.85125 -8 4 C-8.33 3.67 -8.66 3.34 -9 3 C-9.33 5.64 -9.66 8.28 -10 11 C-10.66 10.34 -11.32 9.68 -12 9 C-11.8668165 5.33745362 -11.72325007 2.89015393 -9.375 0 C-6.01155688 -1.41618658 -3.50376557 -0.74118118 0 0 Z " fill="#B5B5B4" transform="translate(526,304)"/>
<path d="M0 0 C2.31 0 4.62 0 7 0 C7.04254356 1.99954746 7.04080783 4.00041636 7 6 C6 7 6 7 4.15234375 7.09765625 C2.1015625 7.06510417 0.05078125 7.03255208 -2 7 C-1.360625 6.690625 -0.72125 6.38125 -0.0625 6.0625 C1.93610821 5.1654837 1.93610821 5.1654837 3 4 C2.01 3.67 1.02 3.34 0 3 C0 2.01 0 1.02 0 0 Z " fill="#9B9B9B" transform="translate(401,310)"/>
<path d="M0 0 C1.4375 2.0625 1.4375 2.0625 2 4 C-1.17043267 4 -3.05663297 3.75957859 -6 3 C-6.99 3 -7.98 3 -9 3 C-9 2.01 -9 1.02 -9 0 C-5.81926598 -1.59036701 -3.37573597 -0.78365299 0 0 Z " fill="#AEAEAC" transform="translate(197,304)"/>
<path d="M0 0 C0.99 0 1.98 0 3 0 C3.66 2.31 4.32 4.62 5 7 C4.34 7.66 3.68 8.32 3 9 C1.68 9 0.36 9 -1 9 C-1 7.68 -1 6.36 -1 5 C-1.66 4.67 -2.32 4.34 -3 4 C-1.6875 2 -1.6875 2 0 0 Z M1 6 C0.67 6.66 0.34 7.32 0 8 C0.66 8 1.32 8 2 8 C1.67 7.34 1.34 6.68 1 6 Z " fill="#B5B5B4" transform="translate(494,303)"/>
<path d="M0 0 C0.66 0.33 1.32 0.66 2 1 C1.28972656 1.73605469 0.57945312 2.47210938 -0.15234375 3.23046875 C-1.08124135 4.21566317 -2.00959853 5.20136733 -2.9375 6.1875 C-3.40607422 6.67025391 -3.87464844 7.15300781 -4.35742188 7.65039062 C-7.17240572 10.66789129 -8.64377076 12.85409804 -9 17 C-9.99 15.68 -10.98 14.36 -12 13 C-8.19524578 8.43969176 -4.25030379 4.14910608 0 0 Z " fill="#FCE19E" transform="translate(416,64)"/>
<path d="M0 0 C0.33 1.32 0.66 2.64 1 4 C1.66 4 2.32 4 3 4 C3.33 2.68 3.66 1.36 4 0 C4 1.98 4 3.96 4 6 C4.78375 6.103125 5.5675 6.20625 6.375 6.3125 C9 7 9 7 11 10 C7.75 10.3125 7.75 10.3125 4 10 C1.15751732 7.449054 0.08981203 6.0103853 -0.25 2.1875 C-0.1675 1.465625 -0.085 0.74375 0 0 Z " fill="#C1C1BF" transform="translate(394,308)"/>
<path d="M0 0 C0.99 0 1.98 0 3 0 C3.99 2.97 4.98 5.94 6 9 C5.34 9 4.68 9 4 9 C3.34 9.66 2.68 10.32 2 11 C0.80712589 7.12315913 0 4.08378077 0 0 Z " fill="#BBBBBA" transform="translate(239,303)"/>
<path d="M0 0 C0.33 0 0.66 0 1 0 C1.125 6.625 1.125 6.625 0 10 C-1.32 10 -2.64 10 -4 10 C-4 7.36 -4 4.72 -4 2 C-3.34 2.66 -2.68 3.32 -2 4 C-1.34 2.68 -0.68 1.36 0 0 Z " fill="#929292" transform="translate(254,308)"/>
<path d="M0 0 C0.33 1.65 0.66 3.3 1 5 C0.46375 4.690625 -0.0725 4.38125 -0.625 4.0625 C-3.3984957 2.82172561 -6.00042837 2.4090325 -9 2 C-9 1.34 -9 0.68 -9 0 C-5.93109813 -1.53445094 -3.29905734 -0.54984289 0 0 Z " fill="#B2B2B1" transform="translate(450,304)"/>
<path d="M0 0 C0.99 0 1.98 0 3 0 C2.67 2.97 2.34 5.94 2 9 C1.34 8.67 0.68 8.34 0 8 C-0.66 8.66 -1.32 9.32 -2 10 C-4 7 -4 7 -3.625 4.8125 C-3.41875 4.214375 -3.2125 3.61625 -3 3 C-2.67 3.99 -2.34 4.98 -2 6 C-1.34 4.02 -0.68 2.04 0 0 Z " fill="#CCCBC9" transform="translate(254,303)"/>
<path d="M0 0 C-0.33 0.66 -0.66 1.32 -1 2 C-1.99 2 -2.98 2 -4 2 C-4 2.66 -4 3.32 -4 4 C-4.66 4 -5.32 4 -6 4 C-6.33 4.99 -6.66 5.98 -7 7 C-7.66 6.67 -8.32 6.34 -9 6 C-9.33 7.32 -9.66 8.64 -10 10 C-9.51470588 3.56985294 -9.51470588 3.56985294 -7.25 1.0625 C-4.64597372 -0.16717908 -2.84687774 -0.23723981 0 0 Z " fill="#B4B3B1" transform="translate(280,303)"/>
<path d="M0 0 C0.33 1.32 0.66 2.64 1 4 C2.98 4 4.96 4 7 4 C7 4.33 7 4.66 7 5 C5.35 5.33 3.7 5.66 2 6 C1.67 6.99 1.34 7.98 1 9 C-0.32 9 -1.64 9 -3 9 C-2.01 6.03 -1.02 3.06 0 0 Z " fill="#BCBBBB" transform="translate(491,309)"/>
<path d="M0 0 C1.32 0 2.64 0 4 0 C4 2.64 4 5.28 4 8 C2.68 7.67 1.36 7.34 0 7 C0 4.69 0 2.38 0 0 Z " fill="#A1A1A0" transform="translate(242,311)"/>
<path d="M0 0 C0.66 0 1.32 0 2 0 C3.28571429 8.42857143 3.28571429 8.42857143 2 13 C1.34 13 0.68 13 0 13 C0 8.71 0 4.42 0 0 Z " fill="#6A6A6C" transform="translate(325,304)"/>
<path d="M0 0 C4.455 0.99 4.455 0.99 9 2 C8.67 2.99 8.34 3.98 8 5 C6.02 5 4.04 5 2 5 C1.34 3.35 0.68 1.7 0 0 Z " fill="#929293" transform="translate(214,313)"/>
<path d="M0 0 C2.31 0.33 4.62 0.66 7 1 C7.66 2.65 8.32 4.3 9 6 C5.64358593 5.40064035 3.57812038 4.22251757 1 2 C0.67 1.34 0.34 0.68 0 0 Z " fill="#B9B9B7" transform="translate(399,303)"/>
<path d="M0 0 C-0.54226981 3.79588866 -2.20127563 5.47211993 -5 8 C-5 7.01 -5 6.02 -5 5 C-5.66 4.67 -6.32 4.34 -7 4 C-3.375 0 -3.375 0 0 0 Z " fill="#BFBEBB" transform="translate(336,303)"/>
<path d="M0 0 C0 2.97 0 5.94 0 9 C-0.99 9 -1.98 9 -3 9 C-3 6.36 -3 3.72 -3 1 C-1 0 -1 0 0 0 Z " fill="#959595" transform="translate(189,306)"/>
<path d="M0 0 C1.32 0.33 2.64 0.66 4 1 C3.67 2.32 3.34 3.64 3 5 C2.34 4.67 1.68 4.34 1 4 C1 6.97 1 9.94 1 13 C0.67 13 0.34 13 0 13 C0 8.71 0 4.42 0 0 Z " fill="#757576" transform="translate(369,304)"/>
<path d="M0 0 C5.28 0.66 10.56 1.32 16 2 C16 2.33 16 2.66 16 3 C10.39 3 4.78 3 -1 3 C-0.67 2.01 -0.34 1.02 0 0 Z " fill="#FBE6A6" transform="translate(129,135)"/>
<path d="M0 0 C0.598125 0.20625 1.19625 0.4125 1.8125 0.625 C1.8125 3.265 1.8125 5.905 1.8125 8.625 C1.4825 8.625 1.1525 8.625 0.8125 8.625 C0.8125 6.975 0.8125 5.325 0.8125 3.625 C-1.1675 2.965 -3.1475 2.305 -5.1875 1.625 C-2.1875 -0.375 -2.1875 -0.375 0 0 Z " fill="#959596" transform="translate(281.1875,304.375)"/>
<path d="M0 0 C0.99 0 1.98 0 3 0 C3.33 0.66 3.66 1.32 4 2 C5.65 2 7.3 2 9 2 C9 2.66 9 3.32 9 4 C6.36 4.33 3.72 4.66 1 5 C0.67 3.35 0.34 1.7 0 0 Z " fill="#B3B3B3" transform="translate(440,312)"/>
<path d="M0 0 C0.36923077 6.52307692 0.36923077 6.52307692 -1.5 8.9375 C-1.995 9.288125 -2.49 9.63875 -3 10 C-3 9.34 -3 8.68 -3 8 C-3.66 7.67 -4.32 7.34 -5 7 C-4.39816251 4.97954558 -3.72693904 2.97888961 -3 1 C-1 0 -1 0 0 0 Z " fill="#BDBDBB" transform="translate(284,307)"/>
<path d="M0 0 C0.99 0 1.98 0 3 0 C3.59732819 2.76264289 4 5.16032769 4 8 C3.01 7.67 2.02 7.34 1 7 C0.67 4.69 0.34 2.38 0 0 Z " fill="#B9B9B8" transform="translate(212,309)"/>
<path d="M0 0 C2.31 0.33 4.62 0.66 7 1 C7 1.99 7 2.98 7 4 C6.01 4.495 6.01 4.495 5 5 C1.125 2.25 1.125 2.25 0 0 Z " fill="#C1C1C0" transform="translate(217,303)"/>
<path d="M0 0 C1.9451 2.91765 2.45276317 4.62537285 3 8 C1.68 7.67 0.36 7.34 -1 7 C-0.67 4.69 -0.34 2.38 0 0 Z " fill="#B2B2B2" transform="translate(499,310)"/>
<path d="M0 0 C3.65316671 1.24976756 4.78065836 1.67098753 7 5 C3.625 5.1875 3.625 5.1875 0 5 C-0.66 4.01 -1.32 3.02 -2 2 C-1.34 2 -0.68 2 0 2 C0 1.34 0 0.68 0 0 Z " fill="#BFBFBE" transform="translate(189,313)"/>
</svg>
